<svg width="39" height="40" viewBox="0 0 39 40" fill="none" xmlns="http://www.w3.org/2000/svg">
<g filter="url(#filter0_d_2045_2)">
<circle cx="19.5" cy="18.5" r="15.5" fill="#0094FF"/>
</g>
<path d="M16.184 14.8C15.9067 14.8427 15.512 14.8747 15 14.896C14.488 14.896 13.9653 14.864 13.432 14.8C12.8987 14.736 12.44 14.6187 12.056 14.448C11.672 14.256 11.4587 13.9787 11.416 13.616C11.3947 13.2533 11.5013 12.9653 11.736 12.752C11.992 12.5387 12.2907 12.3787 12.632 12.272C12.9733 12.144 13.272 12.0693 13.528 12.048C13.8053 12.0053 13.944 11.984 13.944 11.984L22.904 11.152C22.904 11.152 23.0533 11.152 23.352 11.152C23.6507 11.1307 23.992 11.1413 24.376 11.184C24.7813 11.2267 25.144 11.3333 25.464 11.504C25.784 11.6533 25.9547 11.8987 25.976 12.24C26.0187 12.5813 25.912 12.8693 25.656 13.104C25.4213 13.3173 25.1333 13.4987 24.792 13.648C24.4507 13.776 24.152 13.872 23.896 13.936C23.64 13.9787 23.512 14 23.512 14L21.464 14.32C21.5493 14.8533 21.6453 15.6107 21.752 16.592C21.8587 17.552 21.9653 18.6187 22.072 19.792C22.1787 20.9653 22.2747 22.1173 22.36 23.248C22.4453 24.3787 22.5093 25.392 22.552 26.288C22.616 27.184 22.648 27.824 22.648 28.208C22.648 28.6987 22.5093 29.072 22.232 29.328C21.976 29.5627 21.6667 29.7333 21.304 29.84C20.9627 29.9253 20.6533 29.9787 20.376 30C20.12 30 19.992 30 19.992 30C19.992 30 19.8533 30 19.576 30C19.2987 29.9787 18.9787 29.8933 18.616 29.744C18.2747 29.5947 17.9653 29.3173 17.688 28.912C17.432 28.5067 17.304 27.8987 17.304 27.088C17.304 26.3627 17.2613 25.4773 17.176 24.432C17.112 23.3867 17.0267 22.3093 16.92 21.2C16.8133 20.0693 16.696 19.024 16.568 18.064C16.4613 17.104 16.3653 16.3253 16.28 15.728C16.216 15.1093 16.184 14.8 16.184 14.8Z" fill="white"/>
<circle cx="18.5" cy="7.5" r="2.5" fill="white"/>
<defs>
<filter id="filter0_d_2045_2" x="0" y="0" width="39" height="39" filterUnits="userSpaceOnUse" color-interpolation-filters="sRGB">
<feFlood flood-opacity="0" result="BackgroundImageFix"/>
<feColorMatrix in="SourceAlpha" type="matrix" values="0 0 0 0 0 0 0 0 0 0 0 0 0 0 0 0 0 0 127 0" result="hardAlpha"/>
<feOffset dy="1"/>
<feGaussianBlur stdDeviation="2"/>
<feComposite in2="hardAlpha" operator="out"/>
<feColorMatrix type="matrix" values="0 0 0 0 0 0 0 0 0 0 0 0 0 0 0 0 0 0 0.25 0"/>
<feBlend mode="normal" in2="BackgroundImageFix" result="effect1_dropShadow_2045_2"/>
<feBlend mode="normal" in="SourceGraphic" in2="effect1_dropShadow_2045_2" result="shape"/>
</filter>
</defs>
</svg>
