<svg width="376" height="80" viewBox="0 0 376 80" fill="none" xmlns="http://www.w3.org/2000/svg">
<g filter="url(#filter0_d_2031_20)">
<rect x="4" width="367.024" height="72" rx="36" fill="#0094FF"/>
<path d="M30.665 29.257C29.373 29.257 28.385 29.105 27.701 28.801C27.017 28.459 26.523 28.079 26.219 27.661C25.953 27.243 25.801 26.863 25.763 26.521C25.725 26.141 25.706 25.913 25.706 25.837C25.706 25.647 25.63 25.343 25.478 24.925C25.364 24.469 24.984 24.241 24.338 24.241C23.274 24.241 22.324 24.564 21.488 25.21C20.69 25.856 20.253 26.806 20.177 28.06C20.101 29.314 20.424 30.397 21.146 31.309C21.868 32.221 23.293 32.696 25.421 32.734C26.485 32.734 27.606 32.886 28.784 33.19C29.962 33.494 31.064 33.988 32.09 34.672C33.154 35.318 33.99 36.211 34.598 37.351C35.244 38.453 35.567 39.84 35.567 41.512C35.529 44.856 34.636 47.44 32.888 49.264C31.14 51.088 28.233 52 24.167 52C21.469 52 19.303 51.677 17.669 51.031C16.035 50.347 14.838 49.549 14.078 48.637C13.356 47.725 12.976 46.908 12.938 46.186C12.9 45.464 12.938 44.761 13.052 44.077C13.204 43.393 13.603 42.804 14.249 42.31C14.933 41.816 16.016 41.512 17.498 41.398C19.018 41.284 20.101 41.417 20.747 41.797C21.393 42.139 21.792 42.538 21.944 42.994C22.134 43.45 22.229 43.735 22.229 43.849C22.229 43.963 22.267 44.248 22.343 44.704C22.457 45.122 22.647 45.54 22.913 45.958C23.217 46.338 23.635 46.528 24.167 46.528C24.965 46.528 25.649 46.205 26.219 45.559C26.789 44.913 27.15 43.868 27.302 42.424C27.568 39.574 26.143 38.149 23.027 38.149C22.267 38.149 21.279 38.035 20.063 37.807C18.885 37.541 17.707 37.085 16.529 36.439C15.351 35.755 14.363 34.805 13.565 33.589C12.767 32.373 12.387 30.777 12.425 28.801C12.463 26.825 12.824 25.21 13.508 23.956C14.192 22.664 15.085 21.676 16.187 20.992C17.327 20.27 18.562 19.757 19.892 19.453C21.26 19.149 22.609 18.978 23.939 18.94C25.725 18.902 27.435 19.111 29.069 19.567C30.741 20.023 32.128 20.726 33.23 21.676C34.37 22.588 35.016 23.785 35.168 25.267C35.282 26.369 35.111 27.205 34.655 27.775C34.237 28.307 33.705 28.687 33.059 28.915C32.451 29.105 31.9 29.219 31.406 29.257C30.912 29.257 30.665 29.257 30.665 29.257ZM38.3645 35.413C38.3645 32.373 38.8965 29.599 39.9605 27.091C41.0245 24.545 42.4685 22.531 44.2925 21.049C46.1165 19.529 48.1305 18.769 50.3345 18.769C51.9685 18.769 53.5265 19.206 55.0085 20.08C56.4905 20.916 57.8015 22.113 58.9415 23.671C60.0815 25.191 60.9745 26.958 61.6205 28.972C62.2665 30.986 62.5895 33.133 62.5895 35.413C62.5895 37.693 62.2665 39.84 61.6205 41.854C60.9745 43.868 60.0815 45.654 58.9415 47.212C57.8015 48.732 56.4905 49.929 55.0085 50.803C53.5265 51.639 51.9685 52.057 50.3345 52.057C48.1305 52.057 46.1165 51.316 44.2925 49.834C42.4685 48.314 41.0245 46.3 39.9605 43.792C38.8965 41.284 38.3645 38.491 38.3645 35.413ZM47.0855 35.185C47.0855 37.389 47.2375 39.422 47.5415 41.284C47.8455 43.108 48.2635 44.571 48.7955 45.673C49.3275 46.737 49.9165 47.269 50.5625 47.269C51.2085 47.269 51.7975 46.737 52.3295 45.673C52.8615 44.571 53.2795 43.108 53.5835 41.284C53.8875 39.422 54.0395 37.389 54.0395 35.185C54.0395 32.943 53.8875 30.91 53.5835 29.086C53.2795 27.262 52.8615 25.799 52.3295 24.697C51.7975 23.595 51.2085 23.044 50.5625 23.044C49.9165 23.044 49.3275 23.595 48.7955 24.697C48.2635 25.799 47.8455 27.262 47.5415 29.086C47.2375 30.91 47.0855 32.943 47.0855 35.185ZM68.7232 18.541C68.7232 18.541 69.0462 18.503 69.6922 18.427C70.3382 18.351 71.0982 18.446 71.9722 18.712C72.8842 18.978 73.6632 19.624 74.3092 20.65C74.7272 21.296 75.1452 22.075 75.5632 22.987C76.0192 23.861 76.4182 24.735 76.7602 25.609C77.1402 26.483 77.4442 27.205 77.6722 27.775C77.9002 28.345 78.0142 28.63 78.0142 28.63L81.4342 20.308C81.4342 20.308 81.5672 20.137 81.8332 19.795C82.1372 19.453 82.6122 19.13 83.2582 18.826C83.9422 18.522 84.8732 18.408 86.0512 18.484C89.5092 18.712 90.7822 19.795 89.8702 21.733C89.6802 22.113 89.3382 22.816 88.8442 23.842C88.3502 24.83 87.7802 25.951 87.1342 27.205C86.5262 28.421 85.9182 29.618 85.3102 30.796C84.7402 31.974 84.2652 32.943 83.8852 33.703C83.5052 34.463 83.3152 34.843 83.3152 34.843L83.6002 48.751C83.6002 48.751 83.6002 48.922 83.6002 49.264C83.6382 49.568 83.5622 49.948 83.3722 50.404C83.1822 50.822 82.7832 51.202 82.1752 51.544C81.5672 51.848 80.6362 52 79.3822 52C77.7102 52 76.4752 51.772 75.6772 51.316C74.9172 50.86 74.4422 50.366 74.2522 49.834C74.0622 49.264 73.9672 48.846 73.9672 48.58C73.9672 48.428 73.9482 47.858 73.9102 46.87C73.9102 45.882 73.9102 44.723 73.9102 43.393C73.9102 42.063 73.8912 40.733 73.8532 39.403C73.8532 38.073 73.8342 36.971 73.7962 36.097C73.7962 35.223 73.7962 34.786 73.7962 34.786L66.2152 22.702C66.2152 22.702 66.1012 22.531 65.8732 22.189C65.6452 21.847 65.4932 21.448 65.4172 20.992C65.3792 20.498 65.5882 20.023 66.0442 19.567C66.5002 19.111 67.3932 18.769 68.7232 18.541ZM115.475 24.925C114.981 25.001 114.278 25.058 113.366 25.096C112.454 25.096 111.523 25.039 110.573 24.925C109.623 24.811 108.806 24.602 108.122 24.298C107.438 23.956 107.058 23.462 106.982 22.816C106.944 22.17 107.134 21.657 107.552 21.277C108.008 20.897 108.54 20.612 109.148 20.422C109.756 20.194 110.288 20.061 110.744 20.023C111.238 19.947 111.485 19.909 111.485 19.909L127.445 18.427C127.445 18.427 127.711 18.427 128.243 18.427C128.775 18.389 129.383 18.408 130.067 18.484C130.789 18.56 131.435 18.75 132.005 19.054C132.575 19.32 132.879 19.757 132.917 20.365C132.993 20.973 132.803 21.486 132.347 21.904C131.929 22.284 131.416 22.607 130.808 22.873C130.2 23.101 129.668 23.272 129.212 23.386C128.756 23.462 128.528 23.5 128.528 23.5L124.88 24.07C125.032 25.02 125.203 26.369 125.393 28.117C125.583 29.827 125.773 31.727 125.963 33.817C126.153 35.907 126.324 37.959 126.476 39.973C126.628 41.987 126.742 43.792 126.818 45.388C126.932 46.984 126.989 48.124 126.989 48.808C126.989 49.682 126.742 50.347 126.248 50.803C125.792 51.221 125.241 51.525 124.595 51.715C123.987 51.867 123.436 51.962 122.942 52C122.486 52 122.258 52 122.258 52C122.258 52 122.011 52 121.517 52C121.023 51.962 120.453 51.81 119.807 51.544C119.199 51.278 118.648 50.784 118.154 50.062C117.698 49.34 117.47 48.257 117.47 46.813C117.47 45.521 117.394 43.944 117.242 42.082C117.128 40.22 116.976 38.301 116.786 36.325C116.596 34.311 116.387 32.449 116.159 30.739C115.969 29.029 115.798 27.642 115.646 26.578C115.532 25.476 115.475 24.925 115.475 24.925ZM140.736 19.054C140.736 19.054 140.983 19.092 141.477 19.168C141.971 19.206 142.522 19.377 143.13 19.681C143.776 19.947 144.327 20.441 144.783 21.163C145.239 21.847 145.429 22.854 145.353 24.184C145.315 25.058 145.258 26.236 145.182 27.718C145.144 29.162 145.125 30.758 145.125 32.506C145.125 34.216 145.163 35.926 145.239 37.636C145.353 39.346 145.524 40.923 145.752 42.367C146.018 43.811 146.36 44.97 146.778 45.844C147.234 46.68 147.785 47.079 148.431 47.041C149.115 47.003 149.628 46.547 149.97 45.673C150.312 44.761 150.54 43.621 150.654 42.253C150.768 40.847 150.806 39.365 150.768 37.807C150.73 36.249 150.654 34.767 150.54 33.361C150.426 31.917 150.312 30.739 150.198 29.827C150.122 28.877 150.065 28.345 150.027 28.231C149.989 28.079 149.932 27.756 149.856 27.262C149.78 26.768 149.818 26.236 149.97 25.666C150.122 25.096 150.502 24.583 151.11 24.127C151.756 23.671 152.763 23.386 154.131 23.272C155.499 23.158 156.563 23.329 157.323 23.785C158.083 24.241 158.615 24.792 158.919 25.438C159.261 26.084 159.451 26.654 159.489 27.148C159.565 27.642 159.603 27.889 159.603 27.889C159.603 27.889 159.66 28.326 159.774 29.2C159.926 30.074 160.04 31.233 160.116 32.677C160.23 34.083 160.23 35.641 160.116 37.351C160.04 39.061 159.793 40.79 159.375 42.538C158.995 44.248 158.368 45.825 157.494 47.269C156.62 48.675 155.442 49.815 153.96 50.689C152.478 51.563 150.616 52 148.374 52C146.132 52 144.232 51.544 142.674 50.632C141.154 49.682 139.9 48.447 138.912 46.927C137.962 45.369 137.221 43.64 136.689 41.74C136.195 39.84 135.853 37.902 135.663 35.926C135.511 33.912 135.435 32.012 135.435 30.226C135.473 28.44 135.53 26.882 135.606 25.552C135.72 24.222 135.796 23.272 135.834 22.702C135.91 21.714 136.195 20.973 136.689 20.479C137.183 19.947 137.734 19.586 138.342 19.396C138.988 19.206 139.539 19.111 139.995 19.111C140.489 19.073 140.736 19.054 140.736 19.054ZM178.272 48.865L177.189 21.961C177.189 21.961 177.189 21.809 177.189 21.505C177.227 21.201 177.36 20.859 177.588 20.479C177.816 20.061 178.234 19.7 178.842 19.396C179.488 19.054 180.419 18.864 181.635 18.826C183.269 18.75 184.428 18.94 185.112 19.396C185.834 19.814 186.271 20.27 186.423 20.764C186.613 21.22 186.708 21.467 186.708 21.505C186.708 21.543 186.727 21.98 186.765 22.816C186.803 23.652 186.841 24.678 186.879 25.894C186.917 27.11 186.955 28.326 186.993 29.542C187.031 30.758 187.069 31.784 187.107 32.62C187.145 33.418 187.164 33.817 187.164 33.817L193.206 33.475L192.294 22.018C192.294 22.018 192.275 21.885 192.237 21.619C192.237 21.315 192.313 20.973 192.465 20.593C192.655 20.175 193.035 19.795 193.605 19.453C194.213 19.073 195.106 18.826 196.284 18.712C197.5 18.598 198.431 18.674 199.077 18.94C199.723 19.168 200.198 19.472 200.502 19.852C200.806 20.232 200.977 20.574 201.015 20.878C201.091 21.182 201.129 21.334 201.129 21.334L202.896 47.953C202.896 47.953 202.915 48.162 202.953 48.58C202.991 48.96 202.934 49.435 202.782 50.005C202.63 50.537 202.25 51.012 201.642 51.43C201.072 51.81 200.179 52 198.963 52C197.747 52 196.797 51.829 196.113 51.487C195.429 51.145 194.935 50.765 194.631 50.347C194.327 49.891 194.137 49.492 194.061 49.15C193.985 48.808 193.947 48.637 193.947 48.637L193.548 37.693L187.335 38.035L187.848 49.207C187.848 49.207 187.829 49.359 187.791 49.663C187.753 49.929 187.601 50.252 187.335 50.632C187.069 50.974 186.613 51.297 185.967 51.601C185.321 51.867 184.371 52 183.117 52C181.863 52 180.894 51.848 180.21 51.544C179.564 51.202 179.108 50.841 178.842 50.461C178.576 50.043 178.405 49.682 178.329 49.378C178.291 49.036 178.272 48.865 178.272 48.865ZM210.594 19.054C210.594 19.054 210.841 19.092 211.335 19.168C211.829 19.206 212.38 19.377 212.988 19.681C213.634 19.947 214.185 20.441 214.641 21.163C215.097 21.847 215.287 22.854 215.211 24.184C215.173 25.058 215.116 26.236 215.04 27.718C215.002 29.162 214.983 30.758 214.983 32.506C214.983 34.216 215.021 35.926 215.097 37.636C215.211 39.346 215.382 40.923 215.61 42.367C215.876 43.811 216.218 44.97 216.636 45.844C217.092 46.68 217.643 47.079 218.289 47.041C218.973 47.003 219.486 46.547 219.828 45.673C220.17 44.761 220.398 43.621 220.512 42.253C220.626 40.847 220.664 39.365 220.626 37.807C220.588 36.249 220.512 34.767 220.398 33.361C220.284 31.917 220.17 30.739 220.056 29.827C219.98 28.877 219.923 28.345 219.885 28.231C219.847 28.079 219.79 27.756 219.714 27.262C219.638 26.768 219.676 26.236 219.828 25.666C219.98 25.096 220.36 24.583 220.968 24.127C221.614 23.671 222.621 23.386 223.989 23.272C225.357 23.158 226.421 23.329 227.181 23.785C227.941 24.241 228.473 24.792 228.777 25.438C229.119 26.084 229.309 26.654 229.347 27.148C229.423 27.642 229.461 27.889 229.461 27.889C229.461 27.889 229.518 28.326 229.632 29.2C229.784 30.074 229.898 31.233 229.974 32.677C230.088 34.083 230.088 35.641 229.974 37.351C229.898 39.061 229.651 40.79 229.233 42.538C228.853 44.248 228.226 45.825 227.352 47.269C226.478 48.675 225.3 49.815 223.818 50.689C222.336 51.563 220.474 52 218.232 52C215.99 52 214.09 51.544 212.532 50.632C211.012 49.682 209.758 48.447 208.77 46.927C207.82 45.369 207.079 43.64 206.547 41.74C206.053 39.84 205.711 37.902 205.521 35.926C205.369 33.912 205.293 32.012 205.293 30.226C205.331 28.44 205.388 26.882 205.464 25.552C205.578 24.222 205.654 23.272 205.692 22.702C205.768 21.714 206.053 20.973 206.547 20.479C207.041 19.947 207.592 19.586 208.2 19.396C208.846 19.206 209.397 19.111 209.853 19.111C210.347 19.073 210.594 19.054 210.594 19.054ZM232.127 23.101C232.127 23.101 232.089 22.949 232.013 22.645C231.937 22.303 231.956 21.904 232.07 21.448C232.222 20.992 232.564 20.574 233.096 20.194C233.666 19.814 234.559 19.567 235.775 19.453C236.991 19.339 238.359 19.244 239.879 19.168C241.437 19.092 242.919 19.016 244.325 18.94C245.769 18.864 246.947 18.807 247.859 18.769C248.771 18.731 249.227 18.712 249.227 18.712C249.227 18.712 249.474 18.731 249.968 18.769C250.5 18.769 251.108 18.845 251.792 18.997C252.514 19.111 253.16 19.358 253.73 19.738C254.3 20.08 254.642 20.593 254.756 21.277C254.87 21.961 254.737 22.493 254.357 22.873C253.977 23.253 253.521 23.538 252.989 23.728C252.457 23.88 251.982 23.975 251.564 24.013C251.146 24.051 250.937 24.07 250.937 24.07L241.817 24.583C241.817 24.583 241.874 24.83 241.988 25.324C242.102 25.818 242.216 26.388 242.33 27.034C242.482 27.642 242.577 28.174 242.615 28.63C242.653 29.048 242.691 29.599 242.729 30.283C242.767 30.929 242.805 31.518 242.843 32.05C242.881 32.544 242.9 32.791 242.9 32.791H247.118C247.118 32.791 247.327 32.81 247.745 32.848C248.163 32.848 248.638 32.924 249.17 33.076C249.74 33.19 250.234 33.38 250.652 33.646C251.07 33.912 251.298 34.311 251.336 34.843C251.374 35.527 251.108 36.04 250.538 36.382C250.006 36.724 249.436 36.952 248.828 37.066C248.258 37.142 247.897 37.199 247.745 37.237C247.631 37.237 247.327 37.256 246.833 37.294C246.339 37.294 245.788 37.294 245.18 37.294C244.61 37.294 244.097 37.294 243.641 37.294C243.185 37.294 242.957 37.294 242.957 37.294C242.957 37.294 242.957 37.579 242.957 38.149C242.995 38.681 243.033 39.308 243.071 40.03C243.109 40.752 243.109 41.379 243.071 41.911C243.071 42.405 243.052 43.013 243.014 43.735C242.976 44.419 242.938 45.027 242.9 45.559C242.862 46.053 242.843 46.3 242.843 46.3L250.538 46.015C250.538 46.015 250.785 46.015 251.279 46.015C251.773 45.977 252.362 46.015 253.046 46.129C253.73 46.243 254.338 46.471 254.87 46.813C255.402 47.155 255.687 47.668 255.725 48.352C255.801 49.036 255.611 49.587 255.155 50.005C254.699 50.423 254.167 50.727 253.559 50.917C252.951 51.107 252.4 51.24 251.906 51.316C251.45 51.354 251.222 51.373 251.222 51.373L238.91 52C238.91 52 238.606 52 237.998 52C237.428 52.038 236.763 52 236.003 51.886C235.243 51.734 234.578 51.449 234.008 51.031C233.438 50.575 233.172 49.891 233.21 48.979C233.286 47.763 233.362 45.863 233.438 43.279C233.514 40.657 233.476 37.598 233.324 34.102C233.172 30.606 232.773 26.939 232.127 23.101ZM276.589 29.257C275.297 29.257 274.309 29.105 273.625 28.801C272.941 28.459 272.447 28.079 272.143 27.661C271.877 27.243 271.725 26.863 271.687 26.521C271.649 26.141 271.63 25.913 271.63 25.837C271.63 25.647 271.554 25.343 271.402 24.925C271.288 24.469 270.908 24.241 270.262 24.241C269.198 24.241 268.248 24.564 267.412 25.21C266.614 25.856 266.177 26.806 266.101 28.06C266.025 29.314 266.348 30.397 267.07 31.309C267.792 32.221 269.217 32.696 271.345 32.734C272.409 32.734 273.53 32.886 274.708 33.19C275.886 33.494 276.988 33.988 278.014 34.672C279.078 35.318 279.914 36.211 280.522 37.351C281.168 38.453 281.491 39.84 281.491 41.512C281.453 44.856 280.56 47.44 278.812 49.264C277.064 51.088 274.157 52 270.091 52C267.393 52 265.227 51.677 263.593 51.031C261.959 50.347 260.762 49.549 260.002 48.637C259.28 47.725 258.9 46.908 258.862 46.186C258.824 45.464 258.862 44.761 258.976 44.077C259.128 43.393 259.527 42.804 260.173 42.31C260.857 41.816 261.94 41.512 263.422 41.398C264.942 41.284 266.025 41.417 266.671 41.797C267.317 42.139 267.716 42.538 267.868 42.994C268.058 43.45 268.153 43.735 268.153 43.849C268.153 43.963 268.191 44.248 268.267 44.704C268.381 45.122 268.571 45.54 268.837 45.958C269.141 46.338 269.559 46.528 270.091 46.528C270.889 46.528 271.573 46.205 272.143 45.559C272.713 44.913 273.074 43.868 273.226 42.424C273.492 39.574 272.067 38.149 268.951 38.149C268.191 38.149 267.203 38.035 265.987 37.807C264.809 37.541 263.631 37.085 262.453 36.439C261.275 35.755 260.287 34.805 259.489 33.589C258.691 32.373 258.311 30.777 258.349 28.801C258.387 26.825 258.748 25.21 259.432 23.956C260.116 22.664 261.009 21.676 262.111 20.992C263.251 20.27 264.486 19.757 265.816 19.453C267.184 19.149 268.533 18.978 269.863 18.94C271.649 18.902 273.359 19.111 274.993 19.567C276.665 20.023 278.052 20.726 279.154 21.676C280.294 22.588 280.94 23.785 281.092 25.267C281.206 26.369 281.035 27.205 280.579 27.775C280.161 28.307 279.629 28.687 278.983 28.915C278.375 29.105 277.824 29.219 277.33 29.257C276.836 29.257 276.589 29.257 276.589 29.257ZM290.159 52C288.715 52 287.67 51.791 287.024 51.373C286.378 50.917 285.979 50.48 285.827 50.062C285.675 49.644 285.599 49.435 285.599 49.435C285.599 49.435 285.58 48.979 285.542 48.067C285.542 47.117 285.523 45.882 285.485 44.362C285.485 42.842 285.466 41.17 285.428 39.346C285.39 37.522 285.352 35.698 285.314 33.874C285.314 32.05 285.295 30.378 285.257 28.858C285.219 27.338 285.181 26.122 285.143 25.21C285.143 24.26 285.143 23.785 285.143 23.785C285.105 23.785 284.896 23.595 284.516 23.215C284.174 22.835 283.984 22.436 283.946 22.018C283.946 21.714 284.307 21.277 285.029 20.707C285.751 20.137 286.967 19.662 288.677 19.282C290.425 18.864 292.819 18.788 295.859 19.054C298.595 19.282 300.742 19.738 302.3 20.422C303.896 21.068 305.055 21.771 305.777 22.531C306.499 23.253 306.955 23.899 307.145 24.469C307.335 25.001 307.43 25.267 307.43 25.267C307.43 25.267 307.449 25.324 307.487 25.438C307.563 25.552 307.62 25.913 307.658 26.521C307.734 27.091 307.791 28.041 307.829 29.371C307.867 30.701 307.867 32.563 307.829 34.957C307.791 36.895 307.335 38.434 306.461 39.574C305.625 40.714 304.58 41.569 303.326 42.139C302.072 42.671 300.818 43.032 299.564 43.222C298.348 43.374 297.322 43.45 296.486 43.45C295.65 43.412 295.232 43.393 295.232 43.393C295.232 43.393 295.232 43.811 295.232 44.647C295.27 45.445 295.27 46.794 295.232 48.694C295.232 49.644 294.966 50.366 294.434 50.86C293.94 51.316 293.351 51.62 292.667 51.772C292.021 51.924 291.432 52 290.9 52C290.406 52 290.159 52 290.159 52ZM294.662 24.355L295.175 38.491C295.175 38.491 295.422 38.472 295.916 38.434C296.41 38.358 296.98 38.168 297.626 37.864C298.272 37.56 298.823 37.047 299.279 36.325C299.773 35.565 299.982 34.501 299.906 33.133C299.83 31.309 299.754 29.941 299.678 29.029C299.602 28.117 299.545 27.528 299.507 27.262C299.507 26.958 299.507 26.806 299.507 26.806C299.507 26.806 299.469 26.654 299.393 26.35C299.355 26.008 299.203 25.647 298.937 25.267C298.671 24.887 298.196 24.602 297.512 24.412C296.866 24.184 295.916 24.165 294.662 24.355ZM310.391 23.101C310.391 23.101 310.353 22.949 310.277 22.645C310.201 22.303 310.22 21.904 310.334 21.448C310.486 20.992 310.828 20.574 311.36 20.194C311.93 19.814 312.823 19.567 314.039 19.453C315.255 19.339 316.623 19.244 318.143 19.168C319.701 19.092 321.183 19.016 322.589 18.94C324.033 18.864 325.211 18.807 326.123 18.769C327.035 18.731 327.491 18.712 327.491 18.712C327.491 18.712 327.738 18.731 328.232 18.769C328.764 18.769 329.372 18.845 330.056 18.997C330.778 19.111 331.424 19.358 331.994 19.738C332.564 20.08 332.906 20.593 333.02 21.277C333.134 21.961 333.001 22.493 332.621 22.873C332.241 23.253 331.785 23.538 331.253 23.728C330.721 23.88 330.246 23.975 329.828 24.013C329.41 24.051 329.201 24.07 329.201 24.07L320.081 24.583C320.081 24.583 320.138 24.83 320.252 25.324C320.366 25.818 320.48 26.388 320.594 27.034C320.746 27.642 320.841 28.174 320.879 28.63C320.917 29.048 320.955 29.599 320.993 30.283C321.031 30.929 321.069 31.518 321.107 32.05C321.145 32.544 321.164 32.791 321.164 32.791H325.382C325.382 32.791 325.591 32.81 326.009 32.848C326.427 32.848 326.902 32.924 327.434 33.076C328.004 33.19 328.498 33.38 328.916 33.646C329.334 33.912 329.562 34.311 329.6 34.843C329.638 35.527 329.372 36.04 328.802 36.382C328.27 36.724 327.7 36.952 327.092 37.066C326.522 37.142 326.161 37.199 326.009 37.237C325.895 37.237 325.591 37.256 325.097 37.294C324.603 37.294 324.052 37.294 323.444 37.294C322.874 37.294 322.361 37.294 321.905 37.294C321.449 37.294 321.221 37.294 321.221 37.294C321.221 37.294 321.221 37.579 321.221 38.149C321.259 38.681 321.297 39.308 321.335 40.03C321.373 40.752 321.373 41.379 321.335 41.911C321.335 42.405 321.316 43.013 321.278 43.735C321.24 44.419 321.202 45.027 321.164 45.559C321.126 46.053 321.107 46.3 321.107 46.3L328.802 46.015C328.802 46.015 329.049 46.015 329.543 46.015C330.037 45.977 330.626 46.015 331.31 46.129C331.994 46.243 332.602 46.471 333.134 46.813C333.666 47.155 333.951 47.668 333.989 48.352C334.065 49.036 333.875 49.587 333.419 50.005C332.963 50.423 332.431 50.727 331.823 50.917C331.215 51.107 330.664 51.24 330.17 51.316C329.714 51.354 329.486 51.373 329.486 51.373L317.174 52C317.174 52 316.87 52 316.262 52C315.692 52.038 315.027 52 314.267 51.886C313.507 51.734 312.842 51.449 312.272 51.031C311.702 50.575 311.436 49.891 311.474 48.979C311.55 47.763 311.626 45.863 311.702 43.279C311.778 40.657 311.74 37.598 311.588 34.102C311.436 30.606 311.037 26.939 310.391 23.101ZM338.665 48.295C338.513 46.053 338.342 43.716 338.152 41.284C337.962 38.814 337.772 36.458 337.582 34.216C337.43 31.974 337.297 30.074 337.183 28.516C337.069 26.92 336.974 25.894 336.898 25.438C336.784 24.564 336.822 23.975 337.012 23.671C337.24 23.329 337.354 23.158 337.354 23.158C337.354 23.158 337.221 23.025 336.955 22.759C336.689 22.455 336.556 22.132 336.556 21.79C336.556 21.182 336.917 20.688 337.639 20.308C338.399 19.928 339.254 19.643 340.204 19.453C341.154 19.263 341.99 19.13 342.711 19.054C343.472 18.978 343.852 18.94 343.852 18.94C343.852 18.94 344.232 18.921 344.992 18.883C345.752 18.845 346.721 18.883 347.899 18.997C349.115 19.111 350.407 19.415 351.775 19.909C353.181 20.365 354.511 21.106 355.765 22.132C357.057 23.158 358.14 24.564 359.014 26.35C359.888 28.098 360.42 30.34 360.61 33.076C360.838 36.306 360.686 39.023 360.154 41.227C359.66 43.431 358.9 45.236 357.874 46.642C356.886 48.01 355.746 49.074 354.454 49.834C353.162 50.594 351.813 51.126 350.407 51.43C349.039 51.696 347.728 51.867 346.474 51.943C345.258 51.981 344.194 52 343.282 52C341.952 52 340.945 51.81 340.261 51.43C339.615 51.05 339.178 50.632 338.949 50.176C338.76 49.682 338.665 49.245 338.665 48.865C338.665 48.485 338.665 48.295 338.665 48.295ZM344.764 24.07L347.272 47.155C347.272 47.155 347.443 47.136 347.785 47.098C348.127 47.06 348.545 46.889 349.039 46.585C349.571 46.281 350.065 45.73 350.521 44.932C351.015 44.134 351.395 43.013 351.661 41.569C351.927 40.087 351.984 38.168 351.832 35.812C351.68 32.848 351.357 30.549 350.863 28.915C350.407 27.243 349.837 26.046 349.153 25.324C348.507 24.602 347.804 24.184 347.044 24.07C346.284 23.956 345.524 23.956 344.764 24.07Z" fill="white"/>
<circle cx="119.39" cy="11.3902" r="4.39024" fill="white"/>
</g>
<defs>
<filter id="filter0_d_2031_20" x="0" y="0" width="375.024" height="80" filterUnits="userSpaceOnUse" color-interpolation-filters="sRGB">
<feFlood flood-opacity="0" result="BackgroundImageFix"/>
<feColorMatrix in="SourceAlpha" type="matrix" values="0 0 0 0 0 0 0 0 0 0 0 0 0 0 0 0 0 0 127 0" result="hardAlpha"/>
<feOffset dy="4"/>
<feGaussianBlur stdDeviation="2"/>
<feComposite in2="hardAlpha" operator="out"/>
<feColorMatrix type="matrix" values="0 0 0 0 0 0 0 0 0 0 0 0 0 0 0 0 0 0 0.25 0"/>
<feBlend mode="normal" in2="BackgroundImageFix" result="effect1_dropShadow_2031_20"/>
<feBlend mode="normal" in="SourceGraphic" in2="effect1_dropShadow_2031_20" result="shape"/>
</filter>
</defs>
</svg>
