<svg width="118" height="81" viewBox="0 0 118 81" fill="none" xmlns="http://www.w3.org/2000/svg">
<g filter="url(#filter0_d_17_627)">
<rect x="7.28357" y="3" width="103.433" height="54.2667" rx="27.1333" fill="#555555"/>
</g>
<ellipse cx="55.7165" cy="12.0444" rx="4.10448" ry="4.11111" fill="white"/>
<path d="M38.3578 29.252C37.1792 29.252 36.2778 29.1133 35.6538 28.836C35.0298 28.524 34.5792 28.1773 34.3018 27.796C34.0592 27.4147 33.9205 27.068 33.8858 26.756C33.8512 26.4093 33.8338 26.2013 33.8338 26.132C33.8338 25.9587 33.7645 25.6813 33.6258 25.3C33.5218 24.884 33.1752 24.676 32.5858 24.676C31.6152 24.676 30.7485 24.9707 29.9858 25.56C29.2578 26.1493 28.8592 27.016 28.7898 28.16C28.7205 29.304 29.0152 30.292 29.6738 31.124C30.3325 31.956 31.6325 32.3893 33.5738 32.424C34.5445 32.424 35.5672 32.5627 36.6418 32.84C37.7165 33.1173 38.7218 33.568 39.6578 34.192C40.6285 34.7813 41.3912 35.596 41.9458 36.636C42.5352 37.6413 42.8298 38.9067 42.8298 40.432C42.7952 43.4827 41.9805 45.84 40.3858 47.504C38.7912 49.168 36.1392 50 32.4298 50C29.9685 50 27.9925 49.7053 26.5018 49.116C25.0112 48.492 23.9192 47.764 23.2258 46.932C22.5672 46.1 22.2205 45.3547 22.1858 44.696C22.1512 44.0373 22.1858 43.396 22.2898 42.772C22.4285 42.148 22.7925 41.6107 23.3818 41.16C24.0058 40.7093 24.9938 40.432 26.3458 40.328C27.7325 40.224 28.7205 40.3453 29.3098 40.692C29.8992 41.004 30.2632 41.368 30.4018 41.784C30.5752 42.2 30.6618 42.46 30.6618 42.564C30.6618 42.668 30.6965 42.928 30.7658 43.344C30.8698 43.7253 31.0432 44.1067 31.2858 44.488C31.5632 44.8347 31.9445 45.008 32.4298 45.008C33.1578 45.008 33.7818 44.7133 34.3018 44.124C34.8218 43.5347 35.1512 42.5813 35.2898 41.264C35.5325 38.664 34.2325 37.364 31.3898 37.364C30.6965 37.364 29.7952 37.26 28.6858 37.052C27.6112 36.8093 26.5365 36.3933 25.4618 35.804C24.3872 35.18 23.4858 34.3133 22.7578 33.204C22.0298 32.0947 21.6832 30.6387 21.7178 28.836C21.7525 27.0333 22.0818 25.56 22.7058 24.416C23.3298 23.2373 24.1445 22.336 25.1498 21.712C26.1898 21.0533 27.3165 20.5853 28.5298 20.308C29.7778 20.0307 31.0085 19.8747 32.2218 19.84C33.8512 19.8053 35.4112 19.996 36.9018 20.412C38.4272 20.828 39.6925 21.4693 40.6978 22.336C41.7378 23.168 42.3272 24.26 42.4658 25.612C42.5698 26.6173 42.4138 27.38 41.9978 27.9C41.6165 28.3853 41.1312 28.732 40.5418 28.94C39.9872 29.1133 39.4845 29.2173 39.0338 29.252C38.5832 29.252 38.3578 29.252 38.3578 29.252ZM52.5059 25.3C52.0552 25.3693 51.4139 25.4213 50.5819 25.456C49.7499 25.456 48.9006 25.404 48.0339 25.3C47.1672 25.196 46.4219 25.0053 45.7979 24.728C45.1739 24.416 44.8272 23.9653 44.7579 23.376C44.7232 22.7867 44.8966 22.3187 45.2779 21.972C45.6939 21.6253 46.1792 21.3653 46.7339 21.192C47.2886 20.984 47.7739 20.8627 48.1899 20.828C48.6406 20.7587 48.8659 20.724 48.8659 20.724L63.4259 19.372C63.4259 19.372 63.6686 19.372 64.1539 19.372C64.6392 19.3373 65.1939 19.3547 65.8179 19.424C66.4766 19.4933 67.0659 19.6667 67.5859 19.944C68.1059 20.1867 68.3832 20.5853 68.4179 21.14C68.4872 21.6947 68.3139 22.1627 67.8979 22.544C67.5166 22.8907 67.0486 23.1853 66.4939 23.428C65.9392 23.636 65.4539 23.792 65.0379 23.896C64.6219 23.9653 64.4139 24 64.4139 24L61.0859 24.52C61.2246 25.3867 61.3806 26.6173 61.5539 28.212C61.7272 29.772 61.9006 31.5053 62.0739 33.412C62.2472 35.3187 62.4032 37.1907 62.5419 39.028C62.6806 40.8653 62.7846 42.512 62.8539 43.968C62.9579 45.424 63.0099 46.464 63.0099 47.088C63.0099 47.8853 62.7846 48.492 62.3339 48.908C61.9179 49.2893 61.4152 49.5667 60.8259 49.74C60.2712 49.8787 59.7686 49.9653 59.3179 50C58.9019 50 58.6939 50 58.6939 50C58.6939 50 58.4686 50 58.0179 50C57.5672 49.9653 57.0472 49.8267 56.4579 49.584C55.9032 49.3413 55.4006 48.8907 54.9499 48.232C54.5339 47.5733 54.3259 46.5853 54.3259 45.268C54.3259 44.0893 54.2566 42.6507 54.1179 40.952C54.0139 39.2533 53.8752 37.5027 53.7019 35.7C53.5286 33.8627 53.3379 32.164 53.1299 30.604C52.9566 29.044 52.8006 27.7787 52.6619 26.808C52.5579 25.8027 52.5059 25.3 52.5059 25.3ZM71.9624 47.14L70.9744 22.596C70.9744 22.596 70.9744 22.4573 70.9744 22.18C71.0091 21.9027 71.1304 21.5907 71.3384 21.244C71.5464 20.8627 71.9278 20.5333 72.4824 20.256C73.0718 19.944 73.9211 19.7707 75.0304 19.736C76.5211 19.6667 77.5784 19.84 78.2024 20.256C78.8611 20.6373 79.2598 21.0533 79.3984 21.504C79.5718 21.92 79.6584 22.1453 79.6584 22.18C79.6584 22.2147 79.6758 22.6133 79.7104 23.376C79.7451 24.1387 79.7798 25.0747 79.8144 26.184C79.8491 27.2933 79.8838 28.4027 79.9184 29.512C79.9531 30.6213 79.9878 31.5573 80.0224 32.32C80.0571 33.048 80.0744 33.412 80.0744 33.412L85.5864 33.1L84.7544 22.648C84.7544 22.648 84.7371 22.5267 84.7024 22.284C84.7024 22.0067 84.7718 21.6947 84.9104 21.348C85.0838 20.9667 85.4304 20.62 85.9504 20.308C86.5051 19.9613 87.3198 19.736 88.3944 19.632C89.5038 19.528 90.3531 19.5973 90.9424 19.84C91.5318 20.048 91.9651 20.3253 92.2424 20.672C92.5198 21.0187 92.6758 21.3307 92.7104 21.608C92.7798 21.8853 92.8144 22.024 92.8144 22.024L94.4264 46.308C94.4264 46.308 94.4438 46.4987 94.4784 46.88C94.5131 47.2267 94.4611 47.66 94.3224 48.18C94.1838 48.6653 93.8371 49.0987 93.2824 49.48C92.7624 49.8267 91.9478 50 90.8384 50C89.7291 50 88.8624 49.844 88.2384 49.532C87.6144 49.22 87.1638 48.8733 86.8864 48.492C86.6091 48.076 86.4358 47.712 86.3664 47.4C86.2971 47.088 86.2624 46.932 86.2624 46.932L85.8984 36.948L80.2304 37.26L80.6984 47.452C80.6984 47.452 80.6811 47.5907 80.6464 47.868C80.6118 48.1107 80.4731 48.4053 80.2304 48.752C79.9878 49.064 79.5718 49.3587 78.9824 49.636C78.3931 49.8787 77.5264 50 76.3824 50C75.2384 50 74.3544 49.8613 73.7304 49.584C73.1411 49.272 72.7251 48.9427 72.4824 48.596C72.2398 48.2147 72.0838 47.8853 72.0144 47.608C71.9798 47.296 71.9624 47.14 71.9624 47.14Z" fill="#F4F4F4"/>
<g filter="url(#filter1_d_17_627)">
<path d="M8.338 68.7422C7.438 68.7182 6.736 68.6282 6.232 68.4722C5.728 68.3162 5.368 68.1302 5.152 67.9142C4.948 67.6982 4.822 67.4882 4.774 67.2842C4.726 67.0682 4.702 66.9002 4.702 66.7802C4.702 66.6602 4.72 66.4742 4.756 66.2222C4.792 65.9702 4.906 65.7062 5.098 65.4302C5.29 65.1542 5.62 64.9142 6.088 64.7102C6.568 64.5062 7.246 64.3922 8.122 64.3682C9.082 64.3442 9.82 64.3982 10.336 64.5302C10.852 64.6622 11.218 64.8182 11.434 64.9982C11.662 65.1782 11.8 65.3402 11.848 65.4842C11.896 65.6162 11.92 65.6822 11.92 65.6822C11.92 65.8382 11.902 66.0002 11.866 66.1682C11.83 66.3242 11.722 66.4562 11.542 66.5642C11.374 66.6602 11.08 66.7022 10.66 66.6902C10.324 66.6782 10.072 66.6482 9.904 66.6002C9.736 66.5522 9.61 66.4982 9.526 66.4382C9.454 66.3662 9.376 66.2942 9.292 66.2222C9.22 66.1502 9.106 66.0902 8.95 66.0422C8.806 65.9942 8.572 65.9642 8.248 65.9522C7.852 65.9402 7.552 65.9702 7.348 66.0422C7.156 66.1022 7.024 66.1802 6.952 66.2762C6.892 66.3722 6.856 66.4562 6.844 66.5282C6.844 66.5882 6.844 66.6182 6.844 66.6182C6.844 66.6182 6.856 66.6662 6.88 66.7622C6.916 66.8582 7.036 66.9542 7.24 67.0502C7.456 67.1462 7.84 67.2002 8.392 67.2122C9.436 67.2482 10.234 67.3502 10.786 67.5182C11.35 67.6742 11.746 67.8602 11.974 68.0762C12.214 68.2922 12.352 68.5082 12.388 68.7242C12.436 68.9282 12.46 69.0902 12.46 69.2102C12.46 69.3302 12.418 69.5162 12.334 69.7682C12.262 70.0202 12.1 70.2842 11.848 70.5602C11.596 70.8362 11.206 71.0762 10.678 71.2802C10.162 71.4842 9.466 71.5982 8.59 71.6222C7.642 71.6462 6.904 71.5922 6.376 71.4602C5.86 71.3282 5.488 71.1722 5.26 70.9922C5.044 70.8122 4.912 70.6562 4.864 70.5242C4.816 70.3802 4.792 70.3082 4.792 70.3082C4.792 70.1402 4.81 69.9782 4.846 69.8222C4.894 69.6662 5.002 69.5402 5.17 69.4442C5.35 69.3362 5.644 69.2882 6.052 69.3002C6.4 69.3122 6.652 69.3422 6.808 69.3902C6.976 69.4382 7.102 69.4982 7.186 69.5702C7.27 69.6302 7.348 69.6962 7.42 69.7682C7.492 69.8402 7.606 69.9002 7.762 69.9482C7.918 69.9962 8.152 70.0262 8.464 70.0382C8.86 70.0502 9.154 70.0262 9.346 69.9662C9.55 69.8942 9.688 69.8102 9.76 69.7142C9.832 69.6182 9.868 69.5402 9.868 69.4802C9.868 69.4082 9.868 69.3722 9.868 69.3722C9.868 69.3722 9.856 69.3242 9.832 69.2282C9.808 69.1202 9.688 69.0182 9.472 68.9222C9.268 68.8142 8.89 68.7542 8.338 68.7422ZM17.0538 64.3142C17.4978 64.2782 17.8398 64.3262 18.0798 64.4582C18.3198 64.5902 18.4638 64.6682 18.5118 64.6922C18.6318 64.7522 18.7398 64.8182 18.8358 64.8902C18.9438 64.9622 18.9978 64.9982 18.9978 64.9982C18.9978 64.9982 19.0878 65.0282 19.2678 65.0882C19.4478 65.1482 19.6578 65.2922 19.8978 65.5202C20.1378 65.7362 20.3598 66.0782 20.5638 66.5462C20.7678 67.0142 20.8878 67.6502 20.9238 68.4542C20.9478 68.9942 20.8638 69.4502 20.6718 69.8222C20.4798 70.1822 20.2218 70.4822 19.8978 70.7222C19.5858 70.9502 19.2438 71.1302 18.8718 71.2622C18.5118 71.3822 18.1638 71.4662 17.8278 71.5142C17.5038 71.5622 17.2338 71.5922 17.0178 71.6042C16.8138 71.6162 16.7118 71.6222 16.7118 71.6222C16.7118 71.6222 16.5918 71.6222 16.3518 71.6222C16.1238 71.6222 15.8358 71.5862 15.4878 71.5142C15.1398 71.4302 14.7918 71.2742 14.4438 71.0462C14.1078 70.8062 13.8258 70.4582 13.5978 70.0022C13.3818 69.5462 13.2858 68.9402 13.3098 68.1842C13.3338 67.4282 13.4718 66.8102 13.7238 66.3302C13.9878 65.8382 14.2998 65.4542 14.6598 65.1782C15.0318 64.9022 15.3978 64.7042 15.7578 64.5842C16.1298 64.4642 16.4358 64.3922 16.6758 64.3682C16.9278 64.3322 17.0538 64.3142 17.0538 64.3142ZM17.1258 66.0782C17.1258 66.0782 17.0478 66.1742 16.8918 66.3662C16.7478 66.5582 16.5978 66.8282 16.4418 67.1762C16.2978 67.5242 16.2258 67.9322 16.2258 68.4002C16.2258 68.8562 16.2798 69.2162 16.3878 69.4802C16.4958 69.7442 16.6098 69.9362 16.7298 70.0562C16.8618 70.1642 16.9638 70.2182 17.0358 70.2182C17.1078 70.2182 17.2218 70.1882 17.3778 70.1282C17.5458 70.0562 17.6958 69.9002 17.8278 69.6602C17.9598 69.4202 18.0198 69.0422 18.0078 68.5262C17.9958 68.0942 17.9478 67.7462 17.8638 67.4822C17.7918 67.2182 17.6898 66.9842 17.5578 66.7802C17.4378 66.5642 17.2938 66.3302 17.1258 66.0782ZM22.6494 70.4162C22.6494 70.4042 22.6014 70.3322 22.5054 70.2002C22.4214 70.0562 22.3194 69.8222 22.1994 69.4982C22.0794 69.1622 21.9654 68.7002 21.8574 68.1122C21.7494 67.5122 21.6654 66.7562 21.6054 65.8442C21.5814 65.3642 21.6474 65.0222 21.8034 64.8182C21.9714 64.6142 22.1814 64.4882 22.4334 64.4402C22.6854 64.3802 22.9254 64.3502 23.1534 64.3502C23.1534 64.3502 23.2194 64.3502 23.3514 64.3502C23.4954 64.3382 23.6574 64.3502 23.8374 64.3862C24.0174 64.4102 24.1734 64.4882 24.3054 64.6202C24.4494 64.7402 24.5274 64.9322 24.5394 65.1962C24.5514 65.4122 24.5634 65.7062 24.5754 66.0782C24.5874 66.4502 24.6054 66.8522 24.6294 67.2842C24.6654 67.7042 24.7194 68.1122 24.7914 68.5082C24.8634 68.9042 24.9534 69.2342 25.0614 69.4982C25.1814 69.7502 25.3314 69.8882 25.5114 69.9122C25.6914 69.9362 25.8114 69.8342 25.8714 69.6062C25.9314 69.3662 25.9494 69.0662 25.9254 68.7062C25.9134 68.3462 25.8774 67.9862 25.8174 67.6262C25.7694 67.2542 25.7214 66.9422 25.6734 66.6902C25.6254 66.4382 25.6014 66.3122 25.6014 66.3122C25.6014 66.3122 25.5774 66.2402 25.5294 66.0962C25.4814 65.9402 25.4634 65.7662 25.4754 65.5742C25.4874 65.3822 25.5714 65.2082 25.7274 65.0522C25.8834 64.8962 26.1594 64.8122 26.5554 64.8002C27.0954 64.7762 27.4974 64.8302 27.7614 64.9622C28.0374 65.0942 28.2234 65.2622 28.3194 65.4662C28.4274 65.6702 28.4934 65.8802 28.5174 66.0962C28.5414 66.2162 28.5834 66.5042 28.6434 66.9602C28.7154 67.4042 28.7934 67.9322 28.8774 68.5442C28.9614 69.1442 29.0274 69.7682 29.0754 70.4162C29.1234 71.0522 29.1414 71.6342 29.1294 72.1622C29.1174 72.6902 29.0454 73.0922 28.9134 73.3682C28.7094 73.8122 28.4274 74.2202 28.0674 74.5922C27.7194 74.9762 27.2514 75.2702 26.6634 75.4742C26.0874 75.6902 25.3494 75.7742 24.4494 75.7262C23.7774 75.6902 23.2374 75.5822 22.8294 75.4022C22.4214 75.2342 22.1154 75.0482 21.9114 74.8442C21.7074 74.6522 21.5694 74.4782 21.4974 74.3222C21.4374 74.1782 21.4074 74.1062 21.4074 74.1062C21.4074 74.1062 21.3834 74.0402 21.3354 73.9082C21.2994 73.7762 21.2934 73.6202 21.3174 73.4402C21.3534 73.2722 21.4674 73.1222 21.6594 72.9902C21.8514 72.8702 22.1874 72.8162 22.6674 72.8282C23.1474 72.8402 23.4954 72.8822 23.7114 72.9542C23.9274 73.0382 24.0654 73.1282 24.1254 73.2242C24.1854 73.3202 24.2034 73.4042 24.1794 73.4762C24.1674 73.5482 24.1614 73.5842 24.1614 73.5842C24.1614 73.5842 24.1614 73.6502 24.1614 73.7822C24.1614 73.9142 24.2034 74.0402 24.2874 74.1602C24.3834 74.2802 24.5514 74.3342 24.7914 74.3222C25.0434 74.2982 25.3134 74.1842 25.6014 73.9802C25.8894 73.7882 26.1054 73.4942 26.2494 73.0982C26.4054 72.7022 26.3934 72.2102 26.2134 71.6222C26.2134 71.6222 26.0994 71.6402 25.8714 71.6762C25.6434 71.7122 25.3434 71.7122 24.9714 71.6762C24.6114 71.6522 24.2214 71.5502 23.8014 71.3702C23.3934 71.1782 23.0094 70.8602 22.6494 70.4162ZM34.6136 61.7942C34.6016 61.4942 34.6916 61.2542 34.8836 61.0742C35.0756 60.8822 35.5016 60.7682 36.1616 60.7322C36.6056 60.7082 36.9296 60.7622 37.1336 60.8942C37.3376 61.0262 37.4636 61.1642 37.5116 61.3082C37.5716 61.4402 37.6016 61.5062 37.6016 61.5062L37.7096 63.1082C37.7096 63.1082 37.8056 63.1082 37.9976 63.1082C38.2016 63.1082 38.4296 63.1322 38.6816 63.1802C38.9456 63.2162 39.1736 63.2942 39.3656 63.4142C39.5696 63.5342 39.6716 63.7202 39.6716 63.9722C39.6716 64.2242 39.5756 64.4102 39.3836 64.5302C39.1916 64.6502 38.9696 64.7342 38.7176 64.7822C38.4656 64.8182 38.2376 64.8362 38.0336 64.8362C37.8416 64.8362 37.7456 64.8362 37.7456 64.8362C37.7456 64.8362 37.7456 64.9742 37.7456 65.2502C37.7576 65.5142 37.7636 65.8622 37.7636 66.2942C37.7636 66.7142 37.7696 67.1642 37.7816 67.6442C37.7936 68.1242 37.7996 68.5862 37.7996 69.0302C37.7996 69.4622 37.7996 69.8282 37.7996 70.1282C37.8116 70.4162 37.8176 70.5842 37.8176 70.6322C37.8176 70.7162 37.7876 70.8362 37.7276 70.9922C37.6796 71.1482 37.5416 71.2922 37.3136 71.4242C37.0976 71.5562 36.7376 71.6222 36.2336 71.6222C35.8616 71.6222 35.5736 71.5802 35.3696 71.4962C35.1656 71.4002 35.0156 71.2982 34.9196 71.1902C34.8356 71.0702 34.7876 70.9682 34.7756 70.8842C34.7636 70.7882 34.7576 70.7402 34.7576 70.7402L34.6136 61.7942ZM40.4667 65.3942C40.4667 65.3942 40.4667 65.3402 40.4667 65.2322C40.4787 65.1242 40.5207 65.0042 40.5927 64.8722C40.6647 64.7282 40.7967 64.6022 40.9887 64.4942C41.1927 64.3862 41.4807 64.3322 41.8527 64.3322C42.3087 64.3322 42.6327 64.3982 42.8247 64.5302C43.0287 64.6502 43.1487 64.8002 43.1847 64.9802C43.2327 65.1482 43.2447 65.3162 43.2207 65.4842C43.1967 65.6402 43.1847 65.7482 43.1847 65.8082C43.1847 65.8562 43.1847 66.0362 43.1847 66.3482C43.1967 66.6482 43.2207 67.0082 43.2567 67.4282C43.2927 67.8482 43.3527 68.2622 43.4367 68.6702C43.5207 69.0782 43.6407 69.4202 43.7967 69.6962C43.9527 69.9602 44.1567 70.0862 44.4087 70.0742C44.6607 70.0622 44.8287 69.9302 44.9127 69.6782C44.9967 69.4262 45.0267 69.1142 45.0027 68.7422C44.9907 68.3702 44.9487 67.9982 44.8767 67.6262C44.8047 67.2542 44.7327 66.9362 44.6607 66.6722C44.5887 66.3962 44.5527 66.2402 44.5527 66.2042C44.5527 66.1562 44.5347 66.0722 44.4987 65.9522C44.4747 65.8202 44.4747 65.6762 44.4987 65.5202C44.5347 65.3642 44.6367 65.2202 44.8047 65.0882C44.9727 64.9562 45.2487 64.8722 45.6327 64.8362C46.0167 64.8002 46.3167 64.8242 46.5327 64.9082C46.7607 64.9802 46.9227 65.0762 47.0187 65.1962C47.1267 65.3162 47.1927 65.4302 47.2167 65.5382C47.2407 65.6342 47.2527 65.6822 47.2527 65.6822C47.2527 65.6822 47.2947 65.8262 47.3787 66.1142C47.4627 66.4022 47.5407 66.7742 47.6127 67.2302C47.6847 67.6742 47.7087 68.1482 47.6847 68.6522C47.6727 69.1562 47.5647 69.6362 47.3607 70.0922C47.1687 70.5362 46.8447 70.9022 46.3887 71.1902C45.9447 71.4782 45.3207 71.6222 44.5167 71.6222C43.7127 71.6222 43.0527 71.4722 42.5367 71.1722C42.0207 70.8722 41.6127 70.4882 41.3127 70.0202C41.0247 69.5402 40.8147 69.0362 40.6827 68.5082C40.5507 67.9802 40.4727 67.4822 40.4487 67.0142C40.4247 66.5342 40.4187 66.1442 40.4307 65.8442C40.4547 65.5442 40.4667 65.3942 40.4667 65.3942ZM53.3561 70.0742L53.1401 61.1822C53.1401 61.1822 53.1401 61.1342 53.1401 61.0382C53.1521 60.9422 53.1941 60.8282 53.2661 60.6962C53.3381 60.5642 53.4641 60.4502 53.6441 60.3542C53.8361 60.2582 54.1121 60.2102 54.4721 60.2102C54.9521 60.2102 55.3061 60.2642 55.5341 60.3722C55.7741 60.4802 55.9301 60.6182 56.0021 60.7862C56.0741 60.9542 56.1041 61.1222 56.0921 61.2902C56.0801 61.4102 56.0741 61.6382 56.0741 61.9742C56.0861 62.2982 56.0921 62.6462 56.0921 63.0182C56.1041 63.3782 56.1101 63.6902 56.1101 63.9542C56.1221 64.2182 56.1281 64.3502 56.1281 64.3502C56.1281 64.3502 56.2481 64.3202 56.4881 64.2602C56.7401 64.2002 57.0641 64.1582 57.4601 64.1342C57.8561 64.1102 58.2761 64.1582 58.7201 64.2782C59.1641 64.3862 59.5841 64.6142 59.9801 64.9622C60.1241 65.0822 60.2381 65.3042 60.3221 65.6282C60.4181 65.9522 60.4901 66.3302 60.5381 66.7622C60.5981 67.1822 60.6401 67.6202 60.6641 68.0762C60.6881 68.5202 60.7001 68.9342 60.7001 69.3182C60.7121 69.7022 60.7121 70.0142 60.7001 70.2542C60.7001 70.4942 60.7001 70.6142 60.7001 70.6142C60.7001 70.6142 60.7001 70.6682 60.7001 70.7762C60.7001 70.8722 60.6701 70.9862 60.6101 71.1182C60.5621 71.2502 60.4541 71.3702 60.2861 71.4782C60.1181 71.5742 59.8601 71.6222 59.5121 71.6222C59.0561 71.6222 58.7441 71.5682 58.5761 71.4602C58.4081 71.3522 58.3181 71.2082 58.3061 71.0282C58.2941 70.8362 58.2881 70.6262 58.2881 70.3982C58.2881 70.2662 58.2821 70.0502 58.2701 69.7502C58.2581 69.4502 58.2461 69.1202 58.2341 68.7602C58.2221 68.3882 58.2101 68.0342 58.1981 67.6982C58.1861 67.3622 58.1741 67.0862 58.1621 66.8702C58.1501 66.6542 58.1441 66.5462 58.1441 66.5462C58.1441 66.5462 58.1321 66.4742 58.1081 66.3302C58.0961 66.1742 58.0361 66.0242 57.9281 65.8802C57.8201 65.7362 57.6401 65.6702 57.3881 65.6822C57.1961 65.6942 57.0341 65.7842 56.9021 65.9522C56.7701 66.1082 56.6621 66.3062 56.5781 66.5462C56.5061 66.7742 56.4521 66.9962 56.4161 67.2122C56.3801 67.4162 56.3621 67.5662 56.3621 67.6622C56.3621 67.7582 56.3621 67.9502 56.3621 68.2382C56.3741 68.5262 56.3801 68.8382 56.3801 69.1742C56.3801 69.4982 56.3801 69.7802 56.3801 70.0202C56.3921 70.2482 56.3981 70.3622 56.3981 70.3622C56.3981 70.3622 56.3921 70.4282 56.3801 70.5602C56.3681 70.6802 56.3201 70.8242 56.2361 70.9922C56.1521 71.1602 56.0021 71.3102 55.7861 71.4422C55.5821 71.5622 55.2821 71.6222 54.8861 71.6222C54.4301 71.6222 54.0881 71.5442 53.8601 71.3882C53.6441 71.2322 53.5001 71.0522 53.4281 70.8482C53.3681 70.6442 53.3381 70.4642 53.3381 70.3082C53.3501 70.1522 53.3561 70.0742 53.3561 70.0742ZM61.7363 65.3942C61.7363 65.3942 61.7363 65.3402 61.7363 65.2322C61.7483 65.1242 61.7903 65.0042 61.8623 64.8722C61.9343 64.7282 62.0663 64.6022 62.2583 64.4942C62.4623 64.3862 62.7503 64.3322 63.1223 64.3322C63.5783 64.3322 63.9023 64.3982 64.0943 64.5302C64.2983 64.6502 64.4183 64.8002 64.4543 64.9802C64.5023 65.1482 64.5143 65.3162 64.4903 65.4842C64.4663 65.6402 64.4543 65.7482 64.4543 65.8082C64.4543 65.8562 64.4543 66.0362 64.4543 66.3482C64.4663 66.6482 64.4903 67.0082 64.5263 67.4282C64.5623 67.8482 64.6223 68.2622 64.7063 68.6702C64.7903 69.0782 64.9103 69.4202 65.0663 69.6962C65.2223 69.9602 65.4263 70.0862 65.6783 70.0742C65.9303 70.0622 66.0983 69.9302 66.1823 69.6782C66.2663 69.4262 66.2963 69.1142 66.2723 68.7422C66.2603 68.3702 66.2183 67.9982 66.1463 67.6262C66.0743 67.2542 66.0023 66.9362 65.9303 66.6722C65.8583 66.3962 65.8223 66.2402 65.8223 66.2042C65.8223 66.1562 65.8043 66.0722 65.7683 65.9522C65.7443 65.8202 65.7443 65.6762 65.7683 65.5202C65.8043 65.3642 65.9063 65.2202 66.0743 65.0882C66.2423 64.9562 66.5183 64.8722 66.9023 64.8362C67.2863 64.8002 67.5863 64.8242 67.8023 64.9082C68.0303 64.9802 68.1923 65.0762 68.2883 65.1962C68.3963 65.3162 68.4623 65.4302 68.4863 65.5382C68.5103 65.6342 68.5223 65.6822 68.5223 65.6822C68.5223 65.6822 68.5643 65.8262 68.6483 66.1142C68.7323 66.4022 68.8103 66.7742 68.8823 67.2302C68.9543 67.6742 68.9783 68.1482 68.9543 68.6522C68.9423 69.1562 68.8343 69.6362 68.6303 70.0922C68.4383 70.5362 68.1143 70.9022 67.6583 71.1902C67.2143 71.4782 66.5903 71.6222 65.7863 71.6222C64.9823 71.6222 64.3223 71.4722 63.8063 71.1722C63.2903 70.8722 62.8823 70.4882 62.5823 70.0202C62.2943 69.5402 62.0843 69.0362 61.9523 68.5082C61.8203 67.9802 61.7423 67.4822 61.7183 67.0142C61.6943 66.5342 61.6883 66.1442 61.7003 65.8442C61.7243 65.5442 61.7363 65.3942 61.7363 65.3942ZM76.9879 66.1862C76.9519 66.7862 76.7839 67.2722 76.4839 67.6442C76.1839 68.0042 75.8179 68.2802 75.3859 68.4722C74.9659 68.6522 74.5459 68.7782 74.1259 68.8502C73.7059 68.9102 73.3519 68.9402 73.0639 68.9402C72.7879 68.9402 72.6499 68.9402 72.6499 68.9402C72.7219 69.3602 72.8239 69.6602 72.9559 69.8402C73.0879 70.0202 73.2319 70.1222 73.3879 70.1462C73.5559 70.1702 73.7119 70.1582 73.8559 70.1102C73.9999 70.0502 74.1139 69.9842 74.1979 69.9122C74.2939 69.8402 74.3419 69.8042 74.3419 69.8042C74.3419 69.8042 74.4079 69.7502 74.5399 69.6422C74.6719 69.5342 74.8759 69.4322 75.1519 69.3362C75.4399 69.2282 75.7999 69.1742 76.2319 69.1742C76.7239 69.1742 77.0539 69.2402 77.2219 69.3722C77.4019 69.4922 77.4859 69.6362 77.4739 69.8042C77.4739 69.9602 77.4379 70.1042 77.3659 70.2362C77.3059 70.3562 77.2759 70.4162 77.2759 70.4162C77.2759 70.4162 77.2219 70.4762 77.1139 70.5962C77.0179 70.7042 76.8379 70.8362 76.5739 70.9922C76.3099 71.1482 75.9439 71.2922 75.4759 71.4242C75.0079 71.5442 74.4079 71.6102 73.6759 71.6222C72.9679 71.6342 72.3739 71.5382 71.8939 71.3342C71.4139 71.1302 71.0179 70.8662 70.7059 70.5422C70.3939 70.2062 70.1539 69.8582 69.9859 69.4982C69.8299 69.1262 69.7159 68.7842 69.6439 68.4722C69.5839 68.1482 69.5539 67.8962 69.5539 67.7162C69.5539 67.5362 69.5659 67.3022 69.5899 67.0142C69.6259 66.7262 69.7039 66.4262 69.8239 66.1142C69.9559 65.7902 70.1539 65.4842 70.4179 65.1962C70.6819 64.9082 71.0419 64.6742 71.4979 64.4942C71.9659 64.3142 72.5599 64.2182 73.2799 64.2062C74.1799 64.1942 74.8819 64.2722 75.3859 64.4402C75.8899 64.6082 76.2559 64.8122 76.4839 65.0522C76.7119 65.2922 76.8499 65.5202 76.8979 65.7362C76.9579 65.9522 76.9879 66.1022 76.9879 66.1862ZM72.3979 67.6982C73.1299 67.6382 73.6759 67.4822 74.0359 67.2302C74.3959 66.9782 74.6059 66.6962 74.6659 66.3842C74.7259 66.0722 74.6659 65.8082 74.4859 65.5922C74.3179 65.3642 74.0599 65.2622 73.7119 65.2862C73.3639 65.2982 73.0999 65.4302 72.9199 65.6822C72.7399 65.9222 72.6139 66.2042 72.5419 66.5282C72.4699 66.8402 72.4279 67.1162 72.4159 67.3562C72.4039 67.5842 72.3979 67.6982 72.3979 67.6982ZM82.3419 68.7422C81.4419 68.7182 80.7399 68.6282 80.2359 68.4722C79.7319 68.3162 79.3719 68.1302 79.1559 67.9142C78.9519 67.6982 78.8259 67.4882 78.7779 67.2842C78.7299 67.0682 78.7059 66.9002 78.7059 66.7802C78.7059 66.6602 78.7239 66.4742 78.7599 66.2222C78.7959 65.9702 78.9099 65.7062 79.1019 65.4302C79.2939 65.1542 79.6239 64.9142 80.0919 64.7102C80.5719 64.5062 81.2499 64.3922 82.1259 64.3682C83.0859 64.3442 83.8239 64.3982 84.3399 64.5302C84.8559 64.6622 85.2219 64.8182 85.4379 64.9982C85.6659 65.1782 85.8039 65.3402 85.8519 65.4842C85.8999 65.6162 85.9239 65.6822 85.9239 65.6822C85.9239 65.8382 85.9059 66.0002 85.8699 66.1682C85.8339 66.3242 85.7259 66.4562 85.5459 66.5642C85.3779 66.6602 85.0839 66.7022 84.6639 66.6902C84.3279 66.6782 84.0759 66.6482 83.9079 66.6002C83.7399 66.5522 83.6139 66.4982 83.5299 66.4382C83.4579 66.3662 83.3799 66.2942 83.2959 66.2222C83.2239 66.1502 83.1099 66.0902 82.9539 66.0422C82.8099 65.9942 82.5759 65.9642 82.2519 65.9522C81.8559 65.9402 81.5559 65.9702 81.3519 66.0422C81.1599 66.1022 81.0279 66.1802 80.9559 66.2762C80.8959 66.3722 80.8599 66.4562 80.8479 66.5282C80.8479 66.5882 80.8479 66.6182 80.8479 66.6182C80.8479 66.6182 80.8599 66.6662 80.8839 66.7622C80.9199 66.8582 81.0399 66.9542 81.2439 67.0502C81.4599 67.1462 81.8439 67.2002 82.3959 67.2122C83.4399 67.2482 84.2379 67.3502 84.7899 67.5182C85.3539 67.6742 85.7499 67.8602 85.9779 68.0762C86.2179 68.2922 86.3559 68.5082 86.3919 68.7242C86.4399 68.9282 86.4639 69.0902 86.4639 69.2102C86.4639 69.3302 86.4219 69.5162 86.3379 69.7682C86.2659 70.0202 86.1039 70.2842 85.8519 70.5602C85.5999 70.8362 85.2099 71.0762 84.6819 71.2802C84.1659 71.4842 83.4699 71.5982 82.5939 71.6222C81.6459 71.6462 80.9079 71.5922 80.3799 71.4602C79.8639 71.3282 79.4919 71.1722 79.2639 70.9922C79.0479 70.8122 78.9159 70.6562 78.8679 70.5242C78.8199 70.3802 78.7959 70.3082 78.7959 70.3082C78.7959 70.1402 78.8139 69.9782 78.8499 69.8222C78.8979 69.6662 79.0059 69.5402 79.1739 69.4442C79.3539 69.3362 79.6479 69.2882 80.0559 69.3002C80.4039 69.3122 80.6559 69.3422 80.8119 69.3902C80.9799 69.4382 81.1059 69.4982 81.1899 69.5702C81.2739 69.6302 81.3519 69.6962 81.4239 69.7682C81.4959 69.8402 81.6099 69.9002 81.7659 69.9482C81.9219 69.9962 82.1559 70.0262 82.4679 70.0382C82.8639 70.0502 83.1579 70.0262 83.3499 69.9662C83.5539 69.8942 83.6919 69.8102 83.7639 69.7142C83.8359 69.6182 83.8719 69.5402 83.8719 69.4802C83.8719 69.4082 83.8719 69.3722 83.8719 69.3722C83.8719 69.3722 83.8599 69.3242 83.8359 69.2282C83.8119 69.1202 83.6919 69.0182 83.4759 68.9222C83.2719 68.8142 82.8939 68.7542 82.3419 68.7422ZM88.0157 74.1962L87.4217 66.8882C87.4217 66.8882 87.3917 66.8402 87.3317 66.7442C87.2837 66.6482 87.2357 66.5282 87.1877 66.3842C87.1397 66.2282 87.1277 66.0782 87.1517 65.9342C87.1757 65.7902 87.2657 65.6702 87.4217 65.5742C87.5537 65.5022 87.7937 65.3642 88.1417 65.1602C88.5017 64.9442 88.9397 64.7342 89.4557 64.5302C89.9717 64.3262 90.5237 64.1822 91.1117 64.0982C91.7117 64.0142 92.3117 64.0502 92.9117 64.2062C93.5237 64.3502 94.0997 64.6802 94.6397 65.1962C95.1677 65.7002 95.4977 66.2582 95.6297 66.8702C95.7617 67.4822 95.7497 68.0822 95.5937 68.6702C95.4497 69.2582 95.2037 69.7742 94.8557 70.2182C94.5197 70.6622 94.1357 70.9742 93.7037 71.1542C93.1157 71.3942 92.6117 71.5442 92.1917 71.6042C91.7717 71.6522 91.4477 71.6642 91.2197 71.6402C90.9917 71.6282 90.8777 71.6222 90.8777 71.6222L91.0577 74.3402C91.0577 74.3402 91.0577 74.4002 91.0577 74.5202C91.0577 74.6402 91.0217 74.7782 90.9497 74.9342C90.8897 75.0902 90.7577 75.2222 90.5537 75.3302C90.3497 75.4502 90.0497 75.5102 89.6537 75.5102C89.1257 75.4982 88.7417 75.4142 88.5017 75.2582C88.2737 75.1022 88.1357 74.9222 88.0877 74.7182C88.0397 74.5142 88.0157 74.3402 88.0157 74.1962ZM90.3197 66.0782L90.7157 69.9842C90.7157 69.9842 90.8177 69.9842 91.0217 69.9842C91.2257 69.9842 91.4537 69.9482 91.7057 69.8762C91.9697 69.8042 92.1977 69.6662 92.3897 69.4622C92.5817 69.2582 92.6657 68.9522 92.6417 68.5442C92.6177 68.0042 92.5577 67.5242 92.4617 67.1042C92.3657 66.6722 92.2217 66.3422 92.0297 66.1142C91.8377 65.8862 91.5737 65.8022 91.2377 65.8622C90.9017 65.9222 90.6677 65.9702 90.5357 66.0062C90.4157 66.0302 90.3497 66.0482 90.3377 66.0602C90.3257 66.0722 90.3197 66.0782 90.3197 66.0782ZM103.707 66.1862C103.671 66.7862 103.503 67.2722 103.203 67.6442C102.903 68.0042 102.537 68.2802 102.105 68.4722C101.685 68.6522 101.265 68.7782 100.845 68.8502C100.425 68.9102 100.071 68.9402 99.7826 68.9402C99.5066 68.9402 99.3686 68.9402 99.3686 68.9402C99.4406 69.3602 99.5426 69.6602 99.6746 69.8402C99.8066 70.0202 99.9506 70.1222 100.107 70.1462C100.275 70.1702 100.431 70.1582 100.575 70.1102C100.719 70.0502 100.833 69.9842 100.917 69.9122C101.013 69.8402 101.061 69.8042 101.061 69.8042C101.061 69.8042 101.127 69.7502 101.259 69.6422C101.391 69.5342 101.595 69.4322 101.871 69.3362C102.159 69.2282 102.519 69.1742 102.951 69.1742C103.443 69.1742 103.773 69.2402 103.941 69.3722C104.121 69.4922 104.205 69.6362 104.193 69.8042C104.193 69.9602 104.157 70.1042 104.085 70.2362C104.025 70.3562 103.995 70.4162 103.995 70.4162C103.995 70.4162 103.941 70.4762 103.833 70.5962C103.737 70.7042 103.557 70.8362 103.293 70.9922C103.029 71.1482 102.663 71.2922 102.195 71.4242C101.727 71.5442 101.127 71.6102 100.395 71.6222C99.6866 71.6342 99.0926 71.5382 98.6126 71.3342C98.1326 71.1302 97.7366 70.8662 97.4246 70.5422C97.1126 70.2062 96.8726 69.8582 96.7046 69.4982C96.5486 69.1262 96.4346 68.7842 96.3626 68.4722C96.3026 68.1482 96.2726 67.8962 96.2726 67.7162C96.2726 67.5362 96.2846 67.3022 96.3086 67.0142C96.3446 66.7262 96.4226 66.4262 96.5426 66.1142C96.6746 65.7902 96.8726 65.4842 97.1366 65.1962C97.4006 64.9082 97.7606 64.6742 98.2166 64.4942C98.6846 64.3142 99.2786 64.2182 99.9986 64.2062C100.899 64.1942 101.601 64.2722 102.105 64.4402C102.609 64.6082 102.975 64.8122 103.203 65.0522C103.431 65.2922 103.569 65.5202 103.617 65.7362C103.677 65.9522 103.707 66.1022 103.707 66.1862ZM99.1166 67.6982C99.8486 67.6382 100.395 67.4822 100.755 67.2302C101.115 66.9782 101.325 66.6962 101.385 66.3842C101.445 66.0722 101.385 65.8082 101.205 65.5922C101.037 65.3642 100.779 65.2622 100.431 65.2862C100.083 65.2982 99.8186 65.4302 99.6386 65.6822C99.4586 65.9222 99.3326 66.2042 99.2606 66.5282C99.1886 66.8402 99.1466 67.1162 99.1346 67.3562C99.1226 67.5842 99.1166 67.6982 99.1166 67.6982ZM111.131 59.8862C111.131 59.8862 111.203 59.8982 111.347 59.9222C111.503 59.9342 111.677 59.9702 111.869 60.0302C112.061 60.0782 112.235 60.1622 112.391 60.2822C112.559 60.3902 112.649 60.5462 112.661 60.7502C112.673 60.8822 112.691 61.1702 112.715 61.6142C112.739 62.0462 112.763 62.5622 112.787 63.1622C112.823 63.7622 112.853 64.3862 112.877 65.0342C112.913 65.6702 112.943 66.2702 112.967 66.8342C112.991 67.3862 113.009 67.8362 113.021 68.1842C113.045 68.5322 113.057 68.7062 113.057 68.7062C113.057 68.7062 113.051 68.7782 113.039 68.9222C113.039 69.0662 113.003 69.2462 112.931 69.4622C112.871 69.6782 112.757 69.8882 112.589 70.0922C112.229 70.5362 111.773 70.9022 111.221 71.1902C110.669 71.4782 109.913 71.6222 108.953 71.6222C108.317 71.6222 107.705 71.5022 107.117 71.2622C106.541 71.0222 106.067 70.6442 105.695 70.1282C105.335 69.6002 105.161 68.9162 105.173 68.0762C105.185 67.4402 105.323 66.8822 105.587 66.4022C105.863 65.9222 106.223 65.5262 106.667 65.2142C107.111 64.8902 107.603 64.6502 108.143 64.4942C108.695 64.3382 109.247 64.2602 109.799 64.2602L109.673 61.1462C109.673 61.1462 109.661 61.0922 109.637 60.9842C109.613 60.8642 109.625 60.7262 109.673 60.5702C109.733 60.4142 109.871 60.2702 110.087 60.1382C110.303 60.0062 110.651 59.9222 111.131 59.8862ZM109.853 65.8262C109.577 65.8022 109.313 65.9042 109.061 66.1322C108.809 66.3602 108.599 66.6542 108.431 67.0142C108.275 67.3622 108.197 67.7102 108.197 68.0582C108.197 68.5742 108.281 69.0182 108.449 69.3902C108.629 69.7622 108.863 69.9482 109.151 69.9482C109.343 69.9482 109.505 69.8702 109.637 69.7142C109.769 69.5582 109.871 69.4022 109.943 69.2462C110.015 69.0782 110.051 68.9942 110.051 68.9942L109.853 65.8262Z" fill="#555555"/>
</g>
<defs>
<filter id="filter0_d_17_627" x="3.28357" y="0" width="111.433" height="62.2667" filterUnits="userSpaceOnUse" color-interpolation-filters="sRGB">
<feFlood flood-opacity="0" result="BackgroundImageFix"/>
<feColorMatrix in="SourceAlpha" type="matrix" values="0 0 0 0 0 0 0 0 0 0 0 0 0 0 0 0 0 0 127 0" result="hardAlpha"/>
<feOffset dy="1"/>
<feGaussianBlur stdDeviation="2"/>
<feComposite in2="hardAlpha" operator="out"/>
<feColorMatrix type="matrix" values="0 0 0 0 0 0 0 0 0 0 0 0 0 0 0 0 0 0 0.25 0"/>
<feBlend mode="normal" in2="BackgroundImageFix" result="effect1_dropShadow_17_627"/>
<feBlend mode="normal" in="SourceGraphic" in2="effect1_dropShadow_17_627" result="shape"/>
</filter>
<filter id="filter1_d_17_627" x="0.702026" y="56.8862" width="116.355" height="23.912" filterUnits="userSpaceOnUse" color-interpolation-filters="sRGB">
<feFlood flood-opacity="0" result="BackgroundImageFix"/>
<feColorMatrix in="SourceAlpha" type="matrix" values="0 0 0 0 0 0 0 0 0 0 0 0 0 0 0 0 0 0 127 0" result="hardAlpha"/>
<feOffset dy="1"/>
<feGaussianBlur stdDeviation="2"/>
<feComposite in2="hardAlpha" operator="out"/>
<feColorMatrix type="matrix" values="0 0 0 0 0 0 0 0 0 0 0 0 0 0 0 0 0 0 0.25 0"/>
<feBlend mode="normal" in2="BackgroundImageFix" result="effect1_dropShadow_17_627"/>
<feBlend mode="normal" in="SourceGraphic" in2="effect1_dropShadow_17_627" result="shape"/>
</filter>
</defs>
</svg>
